# xmcd
# Copyright (C) 1995-1998 Ti Kan
#
# Track frame offsets:
#       150
#       21344
#       39192
#       65666
#       86909
#       118865
#       136889
#       168090
#       187354
#       205372
#       230763
#
# Disc length: 3260 seconds
#
# Revision: 0
# Processed by: cddbd v1.5.2PL0 Copyright (c) Steve Scherf et al.
# Submitted via: CD-Transfer v1.0
#
DISCID=a20cba0b
DTITLE=Alice In Chains - J. Cantrell
DYEAR=09
DGENRE=
TTITLE0=All Secrets Known
TTITLE1=Check My Brain
TTITLE2=Last Of My Kind
TTITLE3=Your Decision
TTITLE4=A Lookin In View
TTITLE5=When The Sun Rose Again
TTITLE6=Acid Bubble
TTITLE7=Lesson Learned
TTITLE8=Take Her Out
TTITLE9=Private Hell
TTITLE10=Black Gives Way To Blue
EXTD=
EXTT0=
EXTT1=
EXTT2=
EXTT3=
EXTT4=
EXTT5=
EXTT6=
EXTT7=
EXTT8=
EXTT9=
EXTT10=
PLAYORDER=
